<svg width="32" height="32" viewBox="0 0 32 32" fill="none" xmlns="http://www.w3.org/2000/svg">
<path fill-rule="evenodd" clip-rule="evenodd" d="M18.6638 1.00005C25.6737 2.26815 31.0002 8.45089 31.0002 15.8774C31.0002 24.2199 24.2791 30.9927 16.0002 30.9927C7.72142 30.9927 1.00012 24.2199 1.00012 15.8774C1.00012 8.50236 6.25303 2.35387 13.1911 1.02711V1.40698C7.21537 2.79336 2.7365 8.4406 2.7365 15.1879C2.7365 22.9735 8.70012 29.2946 16.0456 29.2946C23.3912 29.2946 29.3546 22.9735 29.3546 15.1879C29.3546 8.35194 24.7573 2.64512 18.6638 1.35452V1.00005Z" fill="#222222"/>
<path fill-rule="evenodd" clip-rule="evenodd" d="M18.4861 1C25.0287 2.22613 30 8.20424 30 15.3849C30 23.4514 23.727 30 16 30C8.27323 30 2.00003 23.4514 2.00003 15.3849C2.00003 8.254 6.90273 2.30901 13.3782 1.02616V1.39347C7.80091 2.73396 3.62065 8.19429 3.62065 14.7183C3.62065 22.2462 9.18667 28.3581 16.0424 28.3581C22.8983 28.3581 28.4641 22.2462 28.4641 14.7183C28.4641 8.10856 24.1733 2.59062 18.4861 1.34274V1Z" fill="#222222"/>
<path fill-rule="evenodd" clip-rule="evenodd" d="M26.982 9.3949C26.5275 10.321 15.7885 28.6051 15.9245 29.3125C15.9763 29.5814 16.4669 29.4945 16.6476 29.3125C16.7177 29.2422 16.5773 28.5456 16.8761 27.6468C17.3793 26.1339 25.1597 12.893 27.0477 10.7866C27.2152 10.5999 27.0776 9.20013 26.982 9.3949Z" fill="#222222"/>
<path fill-rule="evenodd" clip-rule="evenodd" d="M5.00619 9.92558C5.46071 10.8514 10.9146 18.6836 13.9834 23.1453C15.3093 25.0733 16.8179 28.6051 16.6819 29.3125C16.63 29.5814 16.1395 29.4944 15.9587 29.3125C15.8886 29.2422 16.029 28.5456 15.7302 27.6468C15.227 26.1339 14.0377 24.419 13.4798 23.7844C12.2999 22.4424 10.0593 21.4327 8.82459 20.1624C7.09582 18.3836 6.79216 15.8649 6.03132 13.3692C5.95886 13.1317 4.91057 9.73081 5.00619 9.92558Z" fill="#222222"/>
<path fill-rule="evenodd" clip-rule="evenodd" d="M23.3693 6.12992C23.0739 6.85085 19.5294 12.95 17.5349 16.4244C16.6732 17.9258 15.6928 20.676 15.7812 21.2269C15.8148 21.4363 16.1336 21.3686 16.2511 21.2269C16.2967 21.1721 16.2054 20.6297 16.3996 19.9298C16.7267 18.7516 17.4288 17.1272 17.7914 16.6328C18.5582 15.5877 19.8134 15.0632 20.6159 14.074C21.7394 12.6888 22.2085 10.755 22.703 8.81156C22.7501 8.62657 23.4314 5.97825 23.3693 6.12992Z" fill="#222222"/>
<path fill-rule="evenodd" clip-rule="evenodd" d="M8.96937 6.00627C9.26476 6.7272 12.8093 12.8263 14.8037 16.3008C15.6654 17.8021 16.6459 20.5523 16.5575 21.1032C16.5238 21.3127 16.205 21.2449 16.0875 21.1032C16.0419 21.0485 16.1332 20.506 15.939 19.8061C15.612 18.628 14.9098 17.0035 14.5472 16.5091C13.7804 15.4641 12.5252 14.9396 11.7227 13.9504C10.5992 12.5652 10.1301 10.6313 9.63561 8.68791C9.58851 8.50292 8.90722 5.8546 8.96937 6.00627Z" fill="#222222"/>
<path fill-rule="evenodd" clip-rule="evenodd" d="M23.7079 6.00627C23.4125 6.7272 19.868 12.8263 17.8735 16.3008C17.0119 17.8021 16.0314 20.5523 16.1198 21.1032C16.1535 21.3127 16.4723 21.2449 16.5898 21.1032C16.6353 21.0485 16.5441 20.506 16.7383 19.8061C17.0653 18.628 17.7674 17.0035 18.13 16.5091C18.8968 15.4641 20.1521 14.9396 20.9545 13.9504C22.0781 12.5652 22.5472 10.6313 23.0417 8.68791C23.0888 8.50292 23.7701 5.8546 23.7079 6.00627Z" fill="#222222"/>
<path fill-rule="evenodd" clip-rule="evenodd" d="M18.6638 1.00005C25.6737 2.26815 31.0002 8.45089 31.0002 15.8774C31.0002 24.2199 24.2791 30.9927 16.0002 30.9927C7.72142 30.9927 1.00012 24.2199 1.00012 15.8774C1.00012 8.50236 6.25303 2.35387 13.1911 1.02711V1.40698C7.21537 2.79336 2.7365 8.4406 2.7365 15.1879C2.7365 22.9735 8.70012 29.2946 16.0456 29.2946C23.3912 29.2946 29.3546 22.9735 29.3546 15.1879C29.3546 8.35194 24.7573 2.64512 18.6638 1.35452V1.00005Z" stroke="#222222" stroke-width="0.5"/>
<path fill-rule="evenodd" clip-rule="evenodd" d="M18.4861 1C25.0287 2.22613 30 8.20424 30 15.3849C30 23.4514 23.727 30 16 30C8.27323 30 2.00003 23.4514 2.00003 15.3849C2.00003 8.254 6.90273 2.30901 13.3782 1.02616V1.39347C7.80091 2.73396 3.62065 8.19429 3.62065 14.7183C3.62065 22.2462 9.18667 28.3581 16.0424 28.3581C22.8983 28.3581 28.4641 22.2462 28.4641 14.7183C28.4641 8.10856 24.1733 2.59062 18.4861 1.34274V1Z" stroke="#222222" stroke-width="0.5"/>
<path fill-rule="evenodd" clip-rule="evenodd" d="M26.982 9.3949C26.5275 10.321 15.7885 28.6051 15.9245 29.3125C15.9763 29.5814 16.4669 29.4945 16.6476 29.3125C16.7177 29.2422 16.5773 28.5456 16.8761 27.6468C17.3793 26.1339 25.1597 12.893 27.0477 10.7866C27.2152 10.5999 27.0776 9.20013 26.982 9.3949Z" stroke="#222222" stroke-width="0.5"/>
<path fill-rule="evenodd" clip-rule="evenodd" d="M5.00619 9.92558C5.46071 10.8514 10.9146 18.6836 13.9834 23.1453C15.3093 25.0733 16.8179 28.6051 16.6819 29.3125C16.63 29.5814 16.1395 29.4944 15.9587 29.3125C15.8886 29.2422 16.029 28.5456 15.7302 27.6468C15.227 26.1339 14.0377 24.419 13.4798 23.7844C12.2999 22.4424 10.0593 21.4327 8.82459 20.1624C7.09582 18.3836 6.79216 15.8649 6.03132 13.3692C5.95886 13.1317 4.91057 9.73081 5.00619 9.92558Z" stroke="#222222" stroke-width="0.5"/>
<path fill-rule="evenodd" clip-rule="evenodd" d="M23.3693 6.12992C23.0739 6.85085 19.5294 12.95 17.5349 16.4244C16.6732 17.9258 15.6928 20.676 15.7812 21.2269C15.8148 21.4363 16.1336 21.3686 16.2511 21.2269C16.2967 21.1721 16.2054 20.6297 16.3996 19.9298C16.7267 18.7516 17.4288 17.1272 17.7914 16.6328C18.5582 15.5877 19.8134 15.0632 20.6159 14.074C21.7394 12.6888 22.2085 10.755 22.703 8.81156C22.7501 8.62657 23.4314 5.97825 23.3693 6.12992Z" stroke="#222222" stroke-width="0.5"/>
<path fill-rule="evenodd" clip-rule="evenodd" d="M8.96937 6.00627C9.26476 6.7272 12.8093 12.8263 14.8037 16.3008C15.6654 17.8021 16.6459 20.5523 16.5575 21.1032C16.5238 21.3127 16.205 21.2449 16.0875 21.1032C16.0419 21.0485 16.1332 20.506 15.939 19.8061C15.612 18.628 14.9098 17.0035 14.5472 16.5091C13.7804 15.4641 12.5252 14.9396 11.7227 13.9504C10.5992 12.5652 10.1301 10.6313 9.63561 8.68791C9.58851 8.50292 8.90722 5.8546 8.96937 6.00627Z" stroke="#222222" stroke-width="0.5"/>
<path fill-rule="evenodd" clip-rule="evenodd" d="M23.7079 6.00627C23.4125 6.7272 19.868 12.8263 17.8735 16.3008C17.0119 17.8021 16.0314 20.5523 16.1198 21.1032C16.1535 21.3127 16.4723 21.2449 16.5898 21.1032C16.6353 21.0485 16.5441 20.506 16.7383 19.8061C17.0653 18.628 17.7674 17.0035 18.13 16.5091C18.8968 15.4641 20.1521 14.9396 20.9545 13.9504C22.0781 12.5652 22.5472 10.6313 23.0417 8.68791C23.0888 8.50292 23.7701 5.8546 23.7079 6.00627Z" stroke="#222222" stroke-width="0.5"/>
</svg>
